<svg width="569" height="516" viewBox="0 0 569 516" fill="none" xmlns="http://www.w3.org/2000/svg">
<g clip-path="url(#clip0_78_138)">
<path d="M356.114 154.27C350.053 158.439 349.008 161.092 349.531 164.504C350.053 167.915 352.143 172.085 356.95 180.803C361.756 189.521 369.28 202.787 373.042 209.989C376.803 217.191 376.803 218.328 373.668 218.517C370.534 218.707 364.264 217.949 355.591 218.896C346.918 219.844 335.842 222.497 330.635 223.575C325.429 224.653 326.092 224.155 326.513 229.321C326.934 234.488 327.112 245.317 328.872 255.608C330.632 265.899 333.973 275.65 336.894 281.925C339.816 288.2 342.318 290.997 344.819 293.795C343.569 293.845 342.318 293.896 351.619 289.183C360.921 284.47 380.774 274.994 396.344 266.94C411.913 258.885 423.198 252.252 429.677 245.24C436.156 238.227 437.827 230.836 436.783 222.781C435.738 214.727 431.976 206.009 424.557 192.363C417.138 178.718 406.062 160.145 398.747 150.385C391.432 140.624 387.88 139.677 380.565 142.046C373.25 144.415 362.174 150.1 356.114 154.27Z" fill="#9CDBA6"/>
<path d="M326.999 393.12C347.227 394.092 378.574 396.764 395.721 399.559C412.869 402.353 415.816 405.268 418.093 410.371C420.37 415.473 421.978 422.762 422.112 429.565C422.246 436.368 420.906 442.685 419.7 447.301C418.495 451.918 417.423 454.833 415.95 457.385C414.476 459.936 412.601 462.122 405.768 463.216C398.936 464.309 387.148 464.309 374.288 464.431C361.427 464.552 347.495 464.795 331.956 457.992C316.416 451.189 299.269 437.34 291.768 425.434C284.266 413.529 286.409 403.567 292.036 398.222C297.662 392.877 306.771 392.148 326.999 393.12Z" fill="#9CDBA6"/>
<path d="M248.067 144.888C239.499 148.963 225.706 154.08 210.554 161.756C195.402 169.432 178.892 179.666 163.636 190.468C148.38 201.271 134.378 212.642 123.197 223.634C112.017 234.627 103.657 245.24 95.7157 261.728C87.7741 278.217 80.2507 300.58 76.1755 320.006C72.1002 339.432 71.4733 355.92 72.9362 370.418C74.3992 384.916 77.9519 397.425 82.1317 408.512C86.3114 419.599 91.118 429.264 94.9843 436.182C98.8506 443.099 101.776 447.268 103.657 450.585C105.538 453.902 106.374 456.365 108.777 458.545C111.181 460.724 115.152 462.62 120.481 464.041C125.81 465.462 132.497 466.41 137.095 466.126C141.693 465.841 144.201 464.325 147.336 451.722C150.47 439.119 154.232 415.429 156.217 390.128C158.203 364.826 158.412 337.915 174.609 308.065C190.805 278.216 222.989 245.429 249.321 221.455C275.654 197.48 296.134 182.319 304.076 170.758C312.017 159.197 307.419 151.237 298.537 145.836C289.655 140.435 276.489 137.592 268.234 137.687C259.979 137.782 256.636 140.814 248.067 144.888Z" fill="#563635"/>
<path d="M316.608 205.856C320.404 210.626 323.988 216.922 326.307 221.501C328.627 226.079 329.681 228.941 331.157 233.329C332.633 237.717 334.53 243.632 336.639 252.026C338.747 260.421 341.067 271.295 342.437 280.548C343.808 289.802 344.229 297.433 344.545 305.637C344.862 313.84 345.073 322.616 344.229 331.869C343.386 341.123 341.488 350.852 338.642 360.01C335.795 369.168 332 377.753 329.048 383.477C326.096 389.2 323.988 392.062 317.241 397.881C310.494 403.7 299.108 412.476 290.042 417.913C280.975 423.351 274.228 425.449 268.746 427.262C263.264 429.074 259.048 430.6 241.653 426.689C224.257 422.778 193.685 413.43 175.974 402.746C158.263 392.062 153.414 380.042 151.938 368.404C150.462 356.767 152.36 345.51 155.101 333.968C157.842 322.425 161.426 310.597 172.917 298.673C184.409 286.749 203.806 274.729 216.457 261.088C229.108 247.447 235.011 232.184 240.915 222.073C246.819 211.961 252.722 207.001 261.578 203.567C270.433 200.133 282.241 198.225 289.937 196.985C297.632 195.745 301.217 195.172 305.012 196.508C308.807 197.843 312.813 201.087 316.608 205.856Z" fill="#EFD2CB"/>
<path d="M198.53 289.981C199.602 300.307 203.085 312.698 207.774 325.575C212.462 338.453 218.357 351.816 225.189 365.057C232.021 378.299 239.79 391.419 248.23 404.175C256.67 416.931 265.779 429.322 272.343 439.284C278.907 449.245 282.926 456.777 286.007 461.515C289.088 466.253 291.232 468.196 293.509 469.776C295.786 471.355 298.197 472.57 302.752 473.42C307.307 474.271 314.005 474.757 320.435 474.149C326.865 473.542 333.027 471.841 337.314 470.383C341.601 468.925 344.012 467.711 346.022 466.01C348.031 464.309 349.639 462.122 350.04 457.992C350.442 453.861 349.639 447.787 345.486 436.975C341.333 426.163 333.831 410.613 324.722 390.204C315.612 369.795 304.896 344.527 295.652 323.996C286.409 303.465 278.639 287.672 271.271 274.431C263.903 261.189 256.937 250.498 252.785 244.667C248.632 238.836 247.292 237.864 243.139 238.593C238.986 239.322 232.021 241.752 224.385 246.125C216.749 250.499 208.443 256.816 203.621 264.105C198.798 271.394 197.459 279.654 198.53 289.981Z" fill="#9CDBA6"/>
<path d="M248.485 144.888C245.351 152.564 245.56 160.145 242.32 171.042C239.081 181.94 232.394 196.154 226.751 207.146C221.108 218.138 216.511 225.908 208.151 234.627C199.791 243.345 187.67 253.01 178.579 264.002C169.488 274.995 163.428 287.313 157.158 300.864C150.889 314.415 144.41 329.197 142.111 343.601C139.812 358.005 141.693 372.029 141.066 382.926C140.439 393.824 137.305 401.594 134.065 408.891C130.826 416.187 127.482 423.01 125.81 429.738C124.138 436.466 124.138 443.099 125.706 448.69C127.273 454.281 130.408 458.829 148.59 466.221C166.772 473.612 200.001 483.846 221.526 489.342C243.052 494.838 252.874 495.596 261.129 492.753C269.384 489.91 276.072 483.467 280.043 475.128C284.013 466.789 285.267 456.555 284.431 449.164C283.595 441.772 280.669 437.224 271.892 431.538C263.114 425.853 248.485 419.03 231.348 413.723C214.211 408.417 194.567 404.626 183.7 402.068C172.832 399.509 170.742 398.183 167.921 395.056C165.1 391.928 161.547 387.001 159.353 380.178C157.158 373.355 156.322 364.638 157.054 354.688C157.785 344.738 160.084 333.556 162.696 324.743C165.309 315.931 168.235 309.487 169.906 306.644C171.578 303.801 171.996 304.56 176.699 303.801C181.401 303.043 190.387 300.769 204.807 291.482C219.228 282.196 239.081 265.897 248.172 252.346C257.263 238.796 255.591 227.993 255.173 222.687C254.755 217.38 255.591 217.57 265.727 216.053C275.863 214.537 295.299 211.315 305.852 209.704C316.406 208.094 318.078 208.094 316.824 205.345C315.57 202.597 311.391 197.101 312.227 191.226C313.063 185.351 318.914 179.097 322.676 174.169C326.438 169.242 328.109 165.641 336.992 162.324C345.874 159.008 361.965 155.975 374.296 152.848C386.626 149.721 395.194 146.499 400.837 141.098C406.48 135.697 409.196 128.116 409.405 119.398C409.614 110.68 407.315 100.825 405.748 95.3288C404.181 89.8327 403.345 88.6956 396.762 84.147C390.178 79.5985 377.848 71.6388 357.367 72.0179C336.886 72.397 308.256 81.1148 291.432 90.7804C274.609 100.446 269.593 111.059 263.846 120.251C258.099 129.443 251.62 137.213 248.485 144.888Z" fill="#9CDBA6"/>
<path d="M350.574 120.543C362.029 120.543 371.316 111.656 371.316 100.692C371.316 89.7291 362.029 80.8416 350.574 80.8416C339.118 80.8416 329.832 89.7291 329.832 100.692C329.832 111.656 339.118 120.543 350.574 120.543Z" fill="#F9F9F9"/>
<mask id="mask0_78_138" style="mask-type:luminance" maskUnits="userSpaceOnUse" x="340" y="78" width="33" height="38">
<path d="M364.103 114.981C371.972 112.194 374.952 102.038 370.757 92.2966C366.563 82.5552 356.783 76.9175 348.913 79.7043C341.043 82.4911 338.063 92.6472 342.258 102.389C346.453 112.13 356.233 117.768 364.103 114.981Z" fill="white"/>
</mask>
<g mask="url(#mask0_78_138)">
<path d="M350.574 120.543C362.029 120.543 371.316 111.656 371.316 100.692C371.316 89.729 362.029 80.8415 350.574 80.8415C339.118 80.8415 329.832 89.729 329.832 100.692C329.832 111.656 339.118 120.543 350.574 120.543Z" fill="#1C1C1C"/>
</g>
<path d="M260.77 53.6769C281.965 44.7171 320.301 26.7575 340.814 17.7509C361.328 8.74418 364.02 8.69038 368.233 16.9128C372.446 25.1353 378.18 41.6334 380.564 50.3033C382.948 58.9733 381.982 59.8148 358.922 69.9607C335.862 80.1066 290.711 99.5562 267.038 109.158C243.366 118.76 241.173 118.513 238.825 109.105C236.476 99.6967 233.972 81.127 234.746 71.8619C235.521 62.5968 239.575 62.6367 260.77 53.6769Z" fill="#145C9E"/>
<path d="M334.608 412.819C332.538 410.472 340.82 429.437 345.272 440.515C349.724 451.594 350.345 454.786 350.241 457.227C350.138 459.668 349.309 461.358 348.585 462.109C347.86 462.86 347.239 462.673 349.413 462.766C351.587 462.86 356.557 463.236 359.041 463.236C361.526 463.236 361.526 462.86 355.314 450.843C349.102 438.825 336.679 415.166 334.608 412.819Z" fill="#50B498"/>
<path d="M267.728 431.408C272.698 433.38 275.804 437.511 278.288 441.736C280.773 445.961 282.636 450.279 283.361 454.035C284.086 457.79 283.672 460.982 282.74 464.644C281.808 468.306 280.359 472.437 278.702 475.91C277.046 479.384 275.182 482.201 273.112 484.266C271.041 486.332 268.763 487.646 266.382 488.961C264.001 490.275 261.516 491.589 257.996 492.247C254.476 492.904 249.921 492.904 246.194 492.434C242.467 491.965 239.568 491.026 236.359 488.491C233.149 485.956 229.629 481.825 227.869 477.037C226.109 472.249 226.109 466.803 226.42 461.827C226.73 456.851 227.352 452.345 229.629 448.026C231.907 443.707 235.841 439.576 239.361 436.572C242.881 433.568 245.987 431.69 250.956 430.657C255.926 429.624 262.759 429.437 267.728 431.408Z" fill="#008000"/>
<path d="M411.738 407.092C414.326 407.279 416.19 408.969 417.536 411.974C418.882 414.978 419.71 419.297 420.331 423.24C420.952 427.184 421.367 430.751 421.159 434.507C420.952 438.262 420.124 442.205 419.192 445.773C418.261 449.341 417.225 452.533 415.776 454.974C414.326 457.415 412.463 459.105 411.428 460.044C410.392 460.983 410.185 461.17 409.046 460.889C407.908 460.607 405.837 459.856 403.559 457.509C401.282 455.162 398.797 451.218 397.555 445.116C396.312 439.013 396.312 430.751 397.348 424.461C398.383 418.17 400.453 413.852 403.145 411.035C405.837 408.218 409.15 406.904 411.738 407.092Z" fill="#50B498"/>
<path d="M267.728 431.408C272.698 433.38 275.804 437.511 278.288 441.736C280.773 445.961 282.636 450.279 283.361 454.035C284.086 457.79 283.672 460.982 282.74 464.644C281.808 468.306 280.359 472.437 278.702 475.91C277.046 479.384 275.182 482.201 273.112 484.266C271.041 486.332 268.763 487.646 266.382 488.961C264.001 490.275 261.516 491.589 257.996 492.247C254.476 492.904 249.921 492.904 246.194 492.434C242.467 491.965 239.568 491.026 236.359 488.491C233.149 485.956 229.629 481.825 227.869 477.037C226.109 472.249 226.109 466.803 226.42 461.827C226.73 456.851 227.352 452.345 229.629 448.026C231.907 443.707 235.841 439.576 239.361 436.572C242.881 433.568 245.987 431.69 250.956 430.657C255.926 429.624 262.759 429.437 267.728 431.408Z" fill="#50B498"/>
<path d="M350.207 158.155C348.508 159.079 348.411 160.224 348.654 161.412C348.897 162.601 349.479 163.833 351.518 164.406C353.556 164.978 357.051 164.89 362.924 163.613C368.798 162.337 377.049 159.872 382.291 157.671C387.533 155.47 389.766 153.533 391.077 151.905C392.387 150.276 392.776 148.955 393.164 148.031C393.552 147.107 393.94 146.578 393.989 146.138C394.038 145.698 393.746 145.346 392.144 145.918C390.543 146.49 387.63 147.987 381.806 149.792C375.981 151.596 367.244 153.709 361.225 155.118C355.206 156.526 351.906 157.231 350.207 158.155Z" fill="#50B498"/>
<path d="M406.754 116.734C405.59 117.791 404.036 118.847 400.736 119.376C397.435 119.904 392.387 119.904 389.669 119.376C386.951 118.847 386.562 117.791 386.854 116.999C387.145 116.206 388.116 115.678 389.475 115.59C390.834 115.502 392.581 115.854 394.62 115.678C396.658 115.502 398.988 114.798 401.124 113.917C403.26 113.037 405.201 111.981 406.463 111.364C407.725 110.748 408.308 110.572 408.696 111.012C409.084 111.452 409.279 112.509 408.987 113.565C408.696 114.622 407.919 115.678 406.754 116.734Z" fill="#50B498"/>
<mask id="mask1_78_138" style="mask-type:luminance" maskUnits="userSpaceOnUse" x="338" y="79" width="24" height="17">
<path d="M353.281 95.3185C359.49 94.0502 363.157 89.4659 361.472 85.0792C359.788 80.6925 353.389 78.1646 347.18 79.433C340.972 80.7013 337.304 85.2856 338.989 89.6723C340.674 94.059 347.073 96.5869 353.281 95.3185Z" fill="white"/>
</mask>
<g mask="url(#mask1_78_138)">
<path d="M350.638 109.125C360.187 109.125 367.928 102.793 367.928 94.9831C367.928 87.173 360.187 80.8416 350.638 80.8416C341.089 80.8416 333.348 87.173 333.348 94.9831C333.348 102.793 341.089 109.125 350.638 109.125Z" fill="#F9F9F9"/>
</g>
<path d="M299.096 54.0535C298.999 54.1416 297.154 54.6698 295.844 55.6822C294.533 56.6946 293.756 58.1912 293.514 59.7318C293.271 61.2725 293.562 62.8571 294.242 63.7374C294.921 64.6178 295.989 64.7938 297.543 64.7938C299.096 64.7938 301.134 64.6178 302.591 64.0015C304.047 63.3852 304.92 62.3288 305.503 61.3605C306.085 60.3921 306.377 59.5117 306.668 59.7318C306.959 59.9519 307.25 61.2724 306.91 62.593C306.571 63.9135 305.6 65.234 304.192 66.1584C302.785 67.0827 300.94 67.6109 298.853 67.5669C296.766 67.5229 294.436 66.9067 293.028 65.7182C291.621 64.5297 291.135 62.769 291.184 61.0523C291.232 59.3356 291.815 57.663 292.689 56.6066C293.562 55.5501 294.727 55.11 296.135 54.7138C297.543 54.3176 299.193 53.9655 299.096 54.0535Z" fill="#0D399C"/>
<path d="M290.639 61.5654C291.051 61.7522 290.914 63.3707 291.532 64.5535C292.149 65.7362 293.522 66.4832 288.511 68.911C283.5 71.3388 272.105 75.4472 263.731 79.3068C255.356 83.1663 250.002 86.7768 245.952 89.9516C241.902 93.1264 239.156 95.8653 237.577 98.6666C235.999 101.468 235.587 104.331 234.351 115.288C233.115 126.244 231.056 145.292 230.027 156.061C228.997 166.831 228.997 169.321 228.242 170.939C227.487 172.558 225.976 173.305 225.084 172.807C224.192 172.309 223.917 170.566 224.466 164.154C225.015 157.742 226.388 146.661 227.967 134.585C229.546 122.508 231.331 109.436 232.223 102.153C233.115 94.8693 233.115 93.3753 235.175 90.9475C237.234 88.5197 241.353 85.1583 246.638 81.9212C251.924 78.6842 258.377 75.5717 265.516 72.5837C272.655 69.5957 280.48 66.7322 284.873 64.6779C289.266 62.6237 290.227 61.3787 290.639 61.5654Z" fill="#FFB380"/>
<path d="M226.731 175.546C229.12 175.546 231.056 173.706 231.056 171.437C231.056 169.168 229.12 167.329 226.731 167.329C224.343 167.329 222.407 169.168 222.407 171.437C222.407 173.706 224.343 175.546 226.731 175.546Z" fill="#FFB380"/>
<path d="M224.878 172.558C223.506 176.915 222.133 181.273 221.652 184.261C221.172 187.249 221.584 188.867 223.094 189.676C224.604 190.486 227.212 190.486 228.654 189.676C230.095 188.867 230.37 187.249 230.095 184.385C229.821 181.521 228.997 177.413 228.379 175.11C227.761 172.807 227.35 172.309 226.938 171.811" fill="#FFB380"/>
<path d="M290.525 61.5488C290.654 61.471 290.911 61.3154 291.064 61.2431C291.218 61.1708 291.267 61.1819 291.279 61.3376C291.292 61.4932 291.266 61.7933 291.304 62.1657C291.34 62.5381 291.438 62.9827 291.592 63.4052C291.745 63.8276 291.953 64.2277 292.174 64.5612C292.395 64.8947 292.627 65.1615 292.738 65.3894C292.848 65.6172 292.836 65.8062 292.591 66.1119C292.345 66.4176 291.867 66.84 291.555 67.079C291.242 67.318 291.095 67.3735 290.85 66.9122C290.605 66.4509 290.262 65.4727 290.096 64.5612C289.931 63.6497 289.943 62.8049 289.974 62.338C290.004 61.8712 290.053 61.7823 290.127 61.7267C290.201 61.671 290.299 61.6488 290.348 61.6377C290.397 61.6265 290.396 61.6265 290.525 61.5488Z" fill="#FFB380"/>
<path d="M207.534 163.68C203.859 164.874 195.122 170.156 186.316 175.69C177.51 181.223 168.635 187.008 160.799 192.731C152.964 198.453 146.169 204.112 144.99 206.942C143.811 209.771 148.249 209.771 154.281 208.388C160.314 207.005 167.941 204.238 175.222 201.66C182.503 199.082 189.437 196.692 194.36 193.296C199.283 189.901 202.195 185.499 204.206 181.16C206.217 176.822 207.326 172.546 208.574 168.962C209.822 165.377 211.209 162.485 207.534 163.68Z" fill="#9D5E5B"/>
<path d="M131.032 218.072C135.114 217.066 138.123 219.832 138.194 225.114C138.266 230.396 135.401 238.194 133.037 246.117C130.674 254.04 128.811 262.088 124.657 268.565C120.503 275.042 114.057 279.947 106.751 285.103C99.4448 290.259 91.2796 295.667 86.8388 297.113C82.398 298.559 81.6818 296.044 84.7618 287.115C87.8417 278.186 94.7176 262.843 100.663 252.027C106.608 241.212 111.621 234.924 116.707 229.39C121.792 223.857 126.949 219.078 131.032 218.072Z" fill="#9D5E5B"/>
<path d="M79.8271 311.364C81.4971 313.261 84.8372 317.054 87.2031 322.239C89.569 327.424 90.9607 333.999 92.3524 340.828C93.7441 347.657 95.1357 354.738 94.579 360.049C94.0223 365.36 91.5173 368.901 88.0111 372.47C84.5048 376.04 79.9976 379.637 77.7604 381.37C75.5233 383.102 74.8371 383.467 73.652 377.337C72.6563 372.186 71.0158 359.183 71.4438 346.955C71.8717 334.727 75.9303 321.86 77.0437 315.663C78.157 309.467 78.157 309.467 79.8271 311.364Z" fill="#9D5E5B"/>
<path d="M44.1002 416.524C5.26995 413.003 -33.5603 409.482 -72.3906 405.96L44.1002 416.524Z" fill="#9D5E5B"/>
<path d="M80.0181 397.408C81.5436 394.893 85.704 395.145 88.8936 397.912C92.0833 400.678 94.3021 405.96 95.9663 410.362C97.6305 414.764 98.7399 418.285 98.8786 421.806C99.0172 425.328 98.1852 428.849 97.4918 431.49C96.7984 434.131 96.2436 435.892 93.47 432.245C90.6964 428.597 85.704 419.543 82.653 412.374C79.6021 405.206 78.4927 399.924 80.0181 397.408Z" fill="#9D5E5B"/>
<path d="M507.761 223.03C508.35 226.231 508.938 229.432 509.526 232.634L507.761 223.03Z" fill="#9D5E5B"/>
</g>
<defs>
<clipPath id="clip0_78_138">
<rect width="569" height="516" fill="white"/>
</clipPath>
</defs>
</svg>
