<svg width="489" height="413" viewBox="0 0 489 413" fill="none" xmlns="http://www.w3.org/2000/svg">
<path d="M245.278 288.642C256.333 291.016 267.366 293.463 278.377 295.983C289.864 298.612 301.542 301.401 311.475 306.995C316.454 309.799 320.938 313.299 324.347 317.482C330.792 325.391 333.075 335.641 330.719 345.069C328.364 354.497 321.462 362.993 312.088 368.345C302.773 373.664 291.407 375.851 280.215 376.211C269.756 376.547 259.317 375.382 248.956 374.113C242.257 373.293 235.454 372.4 229.341 369.918C223.125 367.395 217.851 363.271 214.129 358.32C210.407 353.37 208.219 347.614 207.557 341.755C206.234 330.037 211.016 318.204 218.922 308.568C225.719 300.282 234.83 293.394 245.278 288.642Z" fill="#9CDBA6"/>
<path d="M212.792 155.978C213.943 154.06 216.138 152.669 218.565 152.087C220.992 151.505 223.622 151.691 225.999 152.409C228.375 153.128 230.51 154.357 232.367 155.815C234.223 157.274 235.815 158.961 237.309 160.697C248.143 173.286 254.009 188.608 256.653 204.077C259.298 219.545 258.877 235.267 258.149 250.888C256.647 283.141 253.862 315.366 248.955 347.371C247.389 357.587 245.546 367.954 240.374 377.259C239.328 379.141 238.145 380.978 236.647 382.621C235.15 384.264 233.326 385.713 231.18 386.698C229.057 387.672 226.661 388.17 224.257 388.296C221.853 388.422 219.436 388.183 217.082 387.747C209.927 386.42 203.287 383.236 198.081 378.833C191.836 373.55 187.692 366.59 185.689 359.274C183.687 351.958 183.76 344.294 185.209 336.883C187.072 327.361 191.163 318.238 196.242 309.616C203.776 296.83 213.516 285.01 220.147 271.862C228.321 255.654 231.505 237.971 234.245 220.475C235.486 212.546 236.653 204.526 235.716 196.567C234.779 188.608 231.547 180.608 225.05 174.855C221.893 172.059 218.039 169.847 215.208 166.806C213.793 165.286 212.645 163.552 212.126 161.66C211.607 159.767 211.754 157.707 212.792 155.978Z" fill="#9CDBA6"/>
<path d="M228.369 116.441C230.754 128.541 232.917 140.673 234.858 152.832C239.702 183.189 243.109 214.409 234.74 244.2C229.43 263.098 219.527 280.824 208.501 297.818C205.615 302.267 202.601 306.729 198.441 310.364C194.28 313.999 188.797 316.775 182.859 317.051C177.743 317.289 172.636 315.629 168.63 312.896C164.624 310.162 161.668 306.413 159.669 302.376C156.672 296.322 155.754 289.622 156.121 283.055C156.488 276.488 158.099 270.018 159.995 263.646C163.788 250.903 168.791 238.03 167.435 224.932C166.947 220.224 165.641 215.609 164.772 210.942C162.812 200.406 163.062 189.531 159.571 179.289C158.637 176.547 157.431 173.832 157.224 170.981C157.121 169.556 157.276 168.105 157.83 166.758C158.384 165.411 159.353 164.171 160.692 163.319C161.918 162.539 163.397 162.111 164.873 161.775C166.349 161.44 167.856 161.184 169.273 160.697C171.964 159.772 174.206 158.043 175.897 156.028C177.587 154.013 178.761 151.714 179.737 149.378C180.876 146.65 181.764 143.829 182.07 140.945C182.375 138.06 182.082 135.102 180.919 132.381C179.619 129.339 177.282 126.686 175.945 123.655C175.276 122.14 174.863 120.517 175.004 118.902C175.145 117.287 175.878 115.677 177.242 114.553C178.174 113.785 179.367 113.267 180.622 112.994C181.876 112.721 183.191 112.684 184.478 112.8C187.053 113.031 189.496 113.853 191.952 114.553C203.622 117.88 216.315 118.538 228.369 116.441Z" fill="#EFD2CB"/>
<path d="M105.036 342.062C130.888 342.062 151.845 307.367 151.845 264.569C151.845 221.771 130.888 187.076 105.036 187.076C79.1845 187.076 58.2275 221.771 58.2275 264.569C58.2275 307.367 79.1845 342.062 105.036 342.062Z" fill="#EFD2CB"/>
<path d="M278.376 0.765899C277.355 0.762196 276.333 0.764784 275.312 0.765899C243.643 0.798946 210.874 -0.512629 181.532 9.68009C159.688 17.2684 141.193 30.8866 126.679 46.7811C112.165 62.6756 101.396 80.8317 92.043 99.3464C78.5207 126.116 67.7685 153.893 59.5573 182.196C53.4285 203.321 48.6914 224.93 49.1373 246.693C49.2992 254.594 50.1452 262.483 51.5891 270.289C51.8315 271.599 52.0914 272.929 51.9104 274.246C51.82 274.905 51.6173 275.556 51.2621 276.146C50.907 276.736 50.3953 277.262 49.7503 277.63C49.0122 278.051 48.124 278.253 47.2386 278.3C46.3532 278.348 45.4655 278.249 44.5932 278.11C42.8488 277.833 41.0827 277.392 39.3303 277.63C37.509 277.878 35.9403 278.826 34.4268 279.728C25.8011 284.865 16.4343 289.459 9.90927 296.507C4.12456 302.756 0.971113 310.622 0.19703 318.566C-0.577051 326.51 0.941958 334.535 3.77988 342.127C6.45868 349.294 10.3009 356.119 14.8128 362.577C25.269 377.545 39.3876 390.609 55.8796 400.856C62.4907 404.964 69.562 408.658 77.3325 410.819C93.2972 415.258 111.684 412.586 125.142 404.002C132.93 399.034 139.07 392.233 142.917 384.601C146.888 376.723 148.423 367.867 146.595 359.431C144.212 348.437 136.397 338.856 127.593 330.591C118.851 322.384 108.876 315.054 97.5595 309.617C93.552 307.691 89.3874 306.007 85.442 303.99C81.4966 301.973 77.7356 299.589 74.8807 296.507C71.0331 292.354 69.0332 287.146 68.0011 281.92C66.9689 276.694 66.8338 271.374 66.2996 266.094C65.3076 256.289 62.9502 246.29 65.6867 236.73C68.2061 227.928 74.9073 220.326 82.9634 214.443C91.0195 208.559 100.427 204.215 109.818 200.024C128.529 191.676 147.8 183.578 163.144 171.184C170.149 165.527 176.309 158.926 179.9 151.278C183.49 143.63 184.332 134.845 180.919 127.138C180.464 126.11 179.934 125.096 179.703 124.015C179.588 123.475 179.55 122.919 179.637 122.375C179.725 121.831 179.941 121.297 180.306 120.845C180.943 120.056 181.996 119.564 183.089 119.35C184.182 119.137 185.32 119.175 186.436 119.272C192.873 119.831 198.854 122.24 204.898 124.217C210.941 126.194 217.5 127.78 223.825 126.613C225.64 126.278 227.467 125.681 228.728 124.516C229.604 123.706 230.155 122.662 230.402 121.579C230.649 120.497 230.603 119.375 230.387 118.288C229.954 116.113 228.859 114.082 228.063 111.984C226.27 107.26 225.994 102.208 224.447 97.4212C223.962 95.9223 223.352 94.4478 223.05 92.9143C222.747 91.3809 222.771 89.7524 223.518 88.3347C223.994 87.4323 224.748 86.6481 225.634 86.0113C226.52 85.3745 227.536 84.8804 228.595 84.4799C230.711 83.6788 232.99 83.2465 235.164 82.5667C237.896 81.7124 240.453 80.4697 243.227 79.7197C244.613 79.3446 246.056 79.0947 247.511 79.0949C248.965 79.0949 250.434 79.3529 251.714 79.9449C252.909 80.4983 253.907 81.3264 254.74 82.2455C255.573 83.1646 256.252 84.1776 256.924 85.1886C263.756 95.4668 270.255 105.979 274.699 117.175C278.912 127.792 281.371 139.184 288.759 148.446C295.975 157.492 307.617 163.75 320.172 165.892C332.728 168.034 346.067 166.151 357.445 161.131C372.077 154.677 383.398 143.091 388.705 129.76C394.312 115.674 393.33 100.191 389.318 85.7129C386.027 73.835 380.755 62.3795 373.995 51.6292C367.607 41.472 359.84 31.8819 350.239 23.7852C341.565 16.4711 331.367 10.3948 320.038 6.57117C306.873 2.12791 292.529 0.817136 278.376 0.765899Z" fill="#9CDBA6"/>
<path d="M105.527 189.013C103.888 201.56 105.635 214.229 107.366 226.767C110.722 251.075 114.022 275.39 117.786 299.654C122.795 331.946 129.251 365.504 151.498 391.942C152.263 392.851 153.047 393.752 153.95 394.564C155.862 396.284 158.264 397.565 160.794 398.541C163.324 399.516 165.993 400.2 168.66 400.856C178.755 403.338 189.344 405.48 199.682 403.891C204.851 403.096 209.873 401.341 213.929 398.487C217.985 395.633 221.024 391.639 221.986 387.223C222.723 383.837 222.241 380.327 221.202 377C220.164 373.673 218.582 370.492 217.082 367.297C204.449 340.387 197.36 311.861 188.274 283.923C175.662 245.141 158.943 206.115 161.918 165.941C162.256 161.368 162.851 156.778 162.341 152.218C161.832 147.657 160.101 143.035 156.401 139.723C154.171 137.726 151.294 136.281 148.199 135.497C145.104 134.713 141.798 134.583 138.612 135.027C132.241 135.916 126.486 139.08 122.22 143.225C117.954 147.37 115.08 152.45 113.064 157.696C111.048 162.943 109.848 168.389 108.592 173.806C107.422 178.853 106.196 183.899 105.527 189.013Z" fill="#9CDBA6"/>
<path d="M195.619 309.982C201.29 336.207 209.894 361.968 221.274 386.797C221.389 387.049 221.506 387.302 221.684 387.525C221.863 387.747 222.111 387.939 222.414 388.016C222.635 388.073 222.874 388.065 223.098 388.018C223.322 387.972 223.533 387.888 223.736 387.793C224.141 387.605 224.528 387.369 224.979 387.285C225.291 387.227 225.615 387.246 225.929 387.294C226.243 387.343 226.549 387.421 226.859 387.483C227.17 387.544 227.488 387.59 227.806 387.57C228.124 387.551 228.444 387.463 228.685 387.285C228.934 387.1 229.083 386.828 229.124 386.549C229.165 386.269 229.103 385.983 228.981 385.722C228.735 385.199 228.264 384.782 227.83 384.359C226.977 383.526 226.234 382.615 225.549 381.676C221.754 376.47 219.775 370.429 218.701 364.363C217.628 358.296 217.416 352.147 216.886 346.028C216.357 339.909 215.495 333.756 213.181 327.949C210.868 322.141 207 316.654 201.32 312.908C199.561 311.748 197.643 310.764 195.619 309.982Z" fill="#50B498"/>
<path d="M331.261 65.1161C331.039 63.7769 330.222 62.5161 329.012 61.6453C327.802 60.7746 326.21 60.3019 324.63 60.3442C323.05 60.3864 321.496 60.9432 320.352 61.8769C319.208 62.8105 318.484 64.1125 318.361 65.461C318.261 66.5447 318.539 67.6404 319.057 68.6331C319.575 69.6259 320.327 70.5203 321.183 71.3237C323.868 73.8445 327.593 75.4757 331.499 76.1612C335.404 76.8467 339.483 76.6214 343.354 75.807C346.07 75.2357 348.727 74.3664 351.027 73.0051C353.326 71.6439 355.257 69.7652 356.254 67.5302C356.71 66.5088 356.967 65.3848 356.682 64.3191C356.539 63.7862 356.26 63.2764 355.841 62.8638C355.422 62.4512 354.86 62.1393 354.238 62.0123C353.519 61.8653 352.748 61.9708 352.076 62.2358C351.405 62.5009 350.827 62.9177 350.335 63.3907C349.353 64.3365 348.704 65.5014 347.788 66.4956C346.771 67.6013 345.424 68.4836 343.911 69.0359C342.397 69.5882 340.721 69.8094 339.084 69.6727C337.446 69.5361 335.851 69.0419 334.491 68.2498C333.131 67.4577 332.009 66.3693 331.261 65.1161Z" fill="#50B498"/>
</svg>
