<svg width="360" height="360" viewBox="0 0 360 360" fill="none" xmlns="http://www.w3.org/2000/svg">
<g clip-path="url(#clip0_78_138)">
<path d="M225.309 107.63C221.475 110.539 220.814 112.39 221.144 114.77C221.475 117.15 222.797 120.059 225.838 126.141C228.879 132.224 233.639 141.479 236.019 146.504C238.399 151.528 238.399 152.322 236.416 152.454C234.433 152.586 230.466 152.057 224.979 152.718C219.491 153.379 212.484 155.23 209.189 155.982C205.895 156.734 206.315 156.387 206.581 159.992C206.847 163.596 206.96 171.151 208.074 178.331C209.187 185.511 211.301 192.314 213.149 196.692C214.998 201.069 216.581 203.021 218.164 204.973C217.372 205.008 216.581 205.044 222.466 201.756C228.351 198.468 240.912 191.856 250.762 186.237C260.613 180.617 267.753 175.99 271.852 171.097C275.951 166.205 277.009 161.048 276.348 155.429C275.686 149.809 273.306 143.727 268.612 134.207C263.918 124.687 256.911 111.729 252.283 104.919C247.655 98.1099 245.407 97.4488 240.779 99.1016C236.151 100.754 229.144 104.721 225.309 107.63Z" fill="#9CDBA6"/>
<path d="M206.889 274.27C219.687 274.948 239.52 276.812 250.368 278.762C261.217 280.711 263.082 282.745 264.523 286.305C265.963 289.865 266.98 294.95 267.065 299.697C267.15 304.443 266.302 308.85 265.54 312.071C264.777 315.292 264.099 317.326 263.166 319.106C262.234 320.885 261.048 322.411 256.725 323.174C252.402 323.937 244.944 323.937 236.807 324.021C228.671 324.106 219.856 324.276 210.025 319.529C200.193 314.783 189.344 305.121 184.598 296.815C179.852 288.509 181.208 281.559 184.767 277.829C188.327 274.1 194.091 273.592 206.889 274.27Z" fill="#9CDBA6"/>
<path d="M156.95 101.085C151.528 103.928 142.802 107.498 133.215 112.853C123.629 118.208 113.183 125.348 103.531 132.885C93.8787 140.422 85.0199 148.355 77.9458 156.024C70.8718 163.693 65.583 171.097 60.5584 182.601C55.5339 194.105 50.7739 209.707 48.1956 223.26C45.6172 236.813 45.2205 248.316 46.1461 258.431C47.0717 268.546 49.3195 277.273 51.964 285.008C54.6085 292.743 57.6496 299.486 60.0957 304.313C62.5419 309.139 64.393 312.048 65.583 314.362C66.773 316.676 67.3019 318.394 68.8225 319.915C70.3431 321.436 72.8553 322.758 76.227 323.749C79.5988 324.741 83.8298 325.402 86.7388 325.204C89.6477 325.006 91.2344 323.948 93.2177 315.155C95.2011 306.362 97.5811 289.834 98.8372 272.182C100.093 254.53 100.226 235.755 110.473 214.929C120.721 194.104 141.083 171.23 157.743 154.503C174.403 137.777 187.361 127.199 192.385 119.133C197.41 111.068 194.501 105.514 188.881 101.746C183.262 97.9776 174.932 95.9943 169.709 96.0604C164.486 96.1266 162.371 98.2421 156.95 101.085Z" fill="#563635"/>
<path d="M200.314 143.621C202.716 146.948 204.983 151.341 206.451 154.535C207.918 157.73 208.585 159.726 209.519 162.788C210.453 165.849 211.653 169.975 212.987 175.832C214.321 181.689 215.789 189.276 216.656 195.731C217.523 202.187 217.79 207.511 217.99 213.235C218.19 218.958 218.323 225.081 217.79 231.537C217.256 237.992 216.056 244.781 214.255 251.17C212.454 257.559 210.053 263.549 208.185 267.542C206.317 271.535 204.983 273.531 200.715 277.591C196.446 281.651 189.242 287.774 183.506 291.567C177.77 295.361 173.501 296.825 170.033 298.089C166.564 299.354 163.896 300.419 152.891 297.69C141.885 294.961 122.542 288.439 111.337 280.985C100.131 273.531 97.0631 265.146 96.1293 257.026C95.1956 248.907 96.3961 241.054 98.1304 233.001C99.8646 224.948 102.132 216.695 109.403 208.376C116.673 200.057 128.946 191.672 136.95 182.155C144.954 172.637 148.689 161.989 152.424 154.934C156.159 147.88 159.894 144.419 165.497 142.023C171.1 139.627 178.57 138.296 183.439 137.431C188.309 136.566 190.576 136.167 192.978 137.098C195.379 138.03 197.913 140.293 200.314 143.621Z" fill="#EFD2CB"/>
<path d="M125.608 202.312C126.286 209.516 128.49 218.161 131.456 227.146C134.423 236.13 138.152 245.453 142.475 254.691C146.797 263.93 151.713 273.083 157.053 281.983C162.392 290.882 168.156 299.527 172.309 306.477C176.462 313.427 179.004 318.682 180.954 321.987C182.903 325.293 184.259 326.649 185.7 327.751C187.141 328.852 188.667 329.7 191.548 330.293C194.43 330.887 198.668 331.226 202.736 330.802C206.804 330.378 210.703 329.191 213.415 328.174C216.127 327.157 217.653 326.31 218.924 325.123C220.196 323.937 221.213 322.411 221.467 319.529C221.721 316.647 221.213 312.41 218.585 304.866C215.958 297.323 211.212 286.474 205.448 272.235C199.685 257.996 192.904 240.367 187.056 226.044C181.208 211.72 176.292 200.702 171.631 191.463C166.969 182.225 162.562 174.766 159.934 170.698C157.307 166.63 156.459 165.952 153.832 166.46C151.204 166.969 146.797 168.664 141.966 171.715C137.135 174.766 131.88 179.174 128.829 184.259C125.778 189.344 124.93 195.108 125.608 202.312Z" fill="#9CDBA6"/>
<path d="M157.214 101.085C155.231 106.44 155.363 111.729 153.313 119.332C151.264 126.935 147.033 136.852 143.463 144.521C139.893 152.19 136.984 157.611 131.695 163.693C126.406 169.775 118.737 176.519 112.985 184.188C107.233 191.857 103.399 200.451 99.4322 209.905C95.4654 219.359 91.3666 229.672 89.9121 239.722C88.4577 249.771 89.6477 259.555 89.251 267.158C88.8543 274.761 86.871 280.182 84.8215 285.273C82.772 290.363 80.6565 295.123 79.5987 299.817C78.5409 304.511 78.5409 309.139 79.5326 313.039C80.5243 316.94 82.5076 320.113 94.0113 325.27C105.515 330.427 126.538 337.567 140.157 341.401C153.776 345.236 159.991 345.765 165.214 343.781C170.436 341.798 174.667 337.302 177.18 331.485C179.692 325.667 180.485 318.527 179.956 313.37C179.427 308.213 177.576 305.04 172.023 301.073C166.469 297.106 157.214 292.346 146.371 288.644C135.529 284.942 123.1 282.297 116.225 280.512C109.349 278.727 108.027 277.802 106.242 275.62C104.457 273.438 102.209 270.001 100.821 265.241C99.4322 260.48 98.9033 254.398 99.3661 247.456C99.8289 240.515 101.283 232.714 102.936 226.565C104.589 220.417 106.44 215.921 107.498 213.938C108.556 211.955 108.82 212.483 111.795 211.954C114.77 211.426 120.456 209.839 129.579 203.36C138.703 196.881 151.264 185.51 157.016 176.056C162.767 166.602 161.71 159.065 161.445 155.363C161.181 151.661 161.71 151.793 168.123 150.735C174.535 149.677 186.832 147.429 193.509 146.305C200.187 145.182 201.244 145.182 200.451 143.264C199.658 141.347 197.013 137.513 197.542 133.414C198.071 129.315 201.773 124.951 204.153 121.514C206.533 118.076 207.591 115.563 213.211 113.25C218.83 110.936 229.011 108.82 236.813 106.638C244.614 104.457 250.035 102.209 253.605 98.4405C257.175 94.6721 258.894 89.3832 259.026 83.3009C259.158 77.2185 257.704 70.343 256.712 66.5085C255.721 62.674 255.192 61.8807 251.027 58.7073C246.861 55.5339 239.06 49.9806 226.102 50.2451C213.144 50.5096 195.03 56.5918 184.386 63.3352C173.742 70.0787 170.569 77.4831 166.932 83.896C163.296 90.3089 159.197 95.7299 157.214 101.085Z" fill="#9CDBA6"/>
<path d="M221.804 84.1C229.052 84.1 234.927 77.8994 234.927 70.2506C234.927 62.6017 229.052 56.4011 221.804 56.4011C214.556 56.4011 208.681 62.6017 208.681 70.2506C208.681 77.8994 214.556 84.1 221.804 84.1Z" fill="#F9F9F9"/>
<mask id="mask0_78_138" style="mask-type:luminance" maskUnits="userSpaceOnUse" x="215" y="55" width="21" height="26">
<path d="M230.364 80.2192C235.343 78.2749 237.228 71.1893 234.574 64.393C231.92 57.5967 225.733 53.6634 220.753 55.6077C215.774 57.552 213.889 64.6376 216.543 71.4339C219.197 78.2302 225.385 82.1635 230.364 80.2192Z" fill="white"/>
</mask>
<g mask="url(#mask0_78_138)">
<path d="M221.804 84.1C229.052 84.1 234.927 77.8994 234.927 70.2506C234.927 62.6017 229.052 56.4011 221.804 56.4011C214.556 56.4011 208.681 62.6017 208.681 70.2506C208.681 77.8994 214.556 84.1 221.804 84.1Z" fill="#1C1C1C"/>
</g>
<path d="M164.986 37.449C178.396 31.1979 202.651 18.668 215.629 12.3843C228.608 6.10057 230.311 6.06303 232.977 11.7996C235.642 17.5362 239.27 29.0465 240.779 35.0953C242.287 41.1441 241.676 41.7312 227.086 48.8098C212.496 55.8883 183.929 69.4578 168.952 76.1567C153.975 82.8556 152.588 82.6838 151.102 76.1198C149.616 69.5558 148.031 56.6002 148.521 50.1362C149.012 43.6722 151.577 43.7 164.986 37.449Z" fill="#145C9E"/>
<path d="M211.703 288.013C210.393 286.376 215.633 299.607 218.45 307.336C221.266 315.066 221.659 317.293 221.594 318.996C221.528 320.699 221.004 321.878 220.546 322.402C220.087 322.926 219.694 322.795 221.07 322.86C222.446 322.926 225.59 323.188 227.162 323.188C228.734 323.188 228.734 322.926 224.803 314.541C220.873 306.157 213.013 289.651 211.703 288.013Z" fill="#50B498"/>
<path d="M169.389 300.983C172.533 302.358 174.498 305.24 176.07 308.188C177.642 311.135 178.821 314.148 179.28 316.769C179.738 319.389 179.476 321.616 178.887 324.17C178.297 326.725 177.38 329.607 176.332 332.031C175.284 334.454 174.105 336.419 172.795 337.86C171.485 339.301 170.044 340.218 168.537 341.135C167.031 342.052 165.459 342.969 163.231 343.428C161.004 343.886 158.122 343.886 155.764 343.559C153.406 343.231 151.572 342.576 149.542 340.808C147.511 339.039 145.284 336.157 144.17 332.817C143.057 329.476 143.057 325.677 143.253 322.205C143.45 318.734 143.843 315.59 145.284 312.576C146.725 309.563 149.214 306.681 151.441 304.585C153.668 302.489 155.633 301.179 158.777 300.459C161.922 299.738 166.245 299.607 169.389 300.983Z" fill="#008000"/>
<path d="M260.502 284.017C262.14 284.148 263.319 285.327 264.17 287.424C265.022 289.52 265.546 292.533 265.939 295.284C266.332 298.035 266.594 300.524 266.463 303.144C266.332 305.764 265.808 308.515 265.218 311.004C264.629 313.493 263.974 315.72 263.057 317.424C262.14 319.127 260.961 320.306 260.306 320.961C259.651 321.616 259.52 321.747 258.799 321.55C258.079 321.354 256.769 320.83 255.328 319.192C253.886 317.554 252.314 314.803 251.528 310.546C250.742 306.288 250.742 300.524 251.397 296.135C252.052 291.747 253.362 288.734 255.066 286.769C256.769 284.803 258.865 283.886 260.502 284.017Z" fill="#50B498"/>
<path d="M169.389 300.983C172.533 302.358 174.498 305.24 176.07 308.188C177.642 311.135 178.821 314.148 179.28 316.769C179.738 319.389 179.476 321.616 178.887 324.17C178.297 326.725 177.38 329.607 176.332 332.031C175.284 334.454 174.105 336.419 172.795 337.86C171.485 339.301 170.044 340.218 168.537 341.135C167.031 342.052 165.459 342.969 163.231 343.428C161.004 343.886 158.122 343.886 155.764 343.559C153.406 343.231 151.572 342.576 149.542 340.808C147.511 339.039 145.284 336.157 144.17 332.817C143.057 329.476 143.057 325.677 143.253 322.205C143.45 318.734 143.843 315.59 145.284 312.576C146.725 309.563 149.214 306.681 151.441 304.585C153.668 302.489 155.633 301.179 158.777 300.459C161.922 299.738 166.245 299.607 169.389 300.983Z" fill="#50B498"/>
<path d="M221.572 110.341C220.497 110.986 220.436 111.784 220.589 112.613C220.743 113.442 221.111 114.302 222.401 114.702C223.691 115.101 225.902 115.039 229.618 114.149C233.334 113.258 238.555 111.538 241.871 110.003C245.188 108.467 246.601 107.116 247.43 105.98C248.259 104.844 248.505 103.922 248.75 103.277C248.996 102.633 249.242 102.264 249.272 101.957C249.303 101.65 249.119 101.404 248.105 101.803C247.092 102.203 245.249 103.247 241.564 104.506C237.879 105.765 232.351 107.239 228.543 108.222C224.735 109.205 222.647 109.696 221.572 110.341Z" fill="#50B498"/>
<path d="M257.349 81.4427C256.612 82.1797 255.629 82.9167 253.541 83.2853C251.453 83.6538 248.259 83.6538 246.539 83.2853C244.82 82.9167 244.574 82.1797 244.758 81.6269C244.942 81.0741 245.557 80.7056 246.417 80.6442C247.276 80.5828 248.382 80.8285 249.672 80.7056C250.962 80.5828 252.436 80.0914 253.787 79.4772C255.138 78.863 256.367 78.126 257.165 77.6961C257.963 77.2661 258.332 77.1433 258.578 77.4504C258.823 77.7575 258.946 78.4945 258.762 79.2316C258.578 79.9686 258.086 80.7056 257.349 81.4427Z" fill="#50B498"/>
<mask id="mask1_78_138" style="mask-type:luminance" maskUnits="userSpaceOnUse" x="214" y="55" width="15" height="12">
<path d="M223.517 66.5013C227.445 65.6164 229.765 62.4181 228.7 59.3576C227.634 56.2971 223.585 54.5335 219.657 55.4184C215.729 56.3033 213.409 59.5016 214.474 62.5621C215.54 65.6225 219.589 67.3862 223.517 66.5013Z" fill="white"/>
</mask>
<g mask="url(#mask1_78_138)">
<path d="M221.845 76.1336C227.886 76.1336 232.784 71.7163 232.784 66.2673C232.784 60.8184 227.886 56.4011 221.845 56.4011C215.803 56.4011 210.905 60.8184 210.905 66.2673C210.905 71.7163 215.803 76.1336 221.845 76.1336Z" fill="#F9F9F9"/>
</g>
<path d="M189.234 37.7118C189.173 37.7732 188.006 38.1417 187.177 38.8481C186.348 39.5544 185.856 40.5985 185.703 41.6734C185.549 42.7482 185.733 43.8538 186.163 44.468C186.593 45.0822 187.269 45.205 188.252 45.205C189.234 45.205 190.524 45.0822 191.445 44.6522C192.367 44.2223 192.92 43.4852 193.288 42.8096C193.657 42.134 193.841 41.5198 194.025 41.6734C194.209 41.8269 194.394 42.7482 194.179 43.6695C193.964 44.5908 193.349 45.5121 192.459 46.157C191.568 46.8019 190.401 47.1704 189.081 47.1397C187.76 47.109 186.286 46.6791 185.396 45.8499C184.505 45.0207 184.198 43.7923 184.229 42.5946C184.259 41.3969 184.628 40.23 185.181 39.493C185.733 38.7559 186.47 38.4488 187.361 38.1724C188.252 37.896 189.296 37.6504 189.234 37.7118Z" fill="#0D399C"/>
<path d="M183.884 42.9526C184.145 43.0829 184.058 44.2121 184.449 45.0373C184.84 45.8625 185.708 46.3836 182.538 48.0774C179.367 49.7713 172.158 52.6376 166.859 55.3303C161.561 58.023 158.173 60.5419 155.611 62.7569C153.049 64.9719 151.311 66.8828 150.312 68.8371C149.314 70.7915 149.053 72.7893 148.271 80.4332C147.489 88.0771 146.187 101.366 145.535 108.88C144.884 116.393 144.884 118.131 144.406 119.26C143.928 120.389 142.973 120.91 142.408 120.563C141.844 120.215 141.67 118.999 142.017 114.526C142.365 110.052 143.233 102.322 144.232 93.8964C145.231 85.4708 146.36 76.3506 146.925 71.2692C147.489 66.1879 147.489 65.1455 148.792 63.4517C150.095 61.7579 152.701 59.4127 156.045 57.1543C159.389 54.8959 163.472 52.7245 167.989 50.6398C172.505 48.5551 177.456 46.5573 180.236 45.1241C183.016 43.6909 183.624 42.8223 183.884 42.9526Z" fill="#FFB380"/>
<path d="M143.45 122.474C144.962 122.474 146.187 121.19 146.187 119.607C146.187 118.024 144.962 116.741 143.45 116.741C141.939 116.741 140.714 118.024 140.714 119.607C140.714 121.19 141.939 122.474 143.45 122.474Z" fill="#FFB380"/>
<path d="M142.278 120.389C141.409 123.429 140.541 126.469 140.237 128.554C139.933 130.639 140.193 131.768 141.149 132.332C142.104 132.897 143.754 132.897 144.666 132.332C145.578 131.768 145.752 130.639 145.578 128.641C145.405 126.643 144.884 123.777 144.493 122.17C144.102 120.563 143.841 120.215 143.581 119.868" fill="#FFB380"/>
<path d="M183.812 42.941C183.893 42.8867 184.056 42.7782 184.153 42.7277C184.25 42.6773 184.281 42.6851 184.289 42.7937C184.297 42.9023 184.281 43.1116 184.304 43.3714C184.328 43.6312 184.39 43.9415 184.487 44.2362C184.584 44.5309 184.715 44.81 184.855 45.0427C184.995 45.2754 185.142 45.4615 185.212 45.6205C185.282 45.7795 185.274 45.9113 185.119 46.1246C184.964 46.3378 184.661 46.6325 184.463 46.7993C184.266 46.966 184.173 47.0048 184.017 46.6829C183.862 46.3611 183.645 45.6786 183.54 45.0427C183.436 44.4068 183.444 43.8174 183.463 43.4917C183.482 43.1659 183.513 43.1039 183.56 43.0651C183.607 43.0263 183.669 43.0108 183.7 43.0031C183.731 42.9953 183.73 42.9953 183.812 42.941Z" fill="#FFB380"/>
<path d="M131.304 114.195C128.979 115.028 123.452 118.714 117.88 122.574C112.308 126.435 106.693 130.471 101.736 134.463C96.7783 138.455 92.4791 142.404 91.7333 144.378C90.9875 146.352 93.7952 146.352 97.612 145.387C101.429 144.422 106.254 142.491 110.861 140.693C115.467 138.894 119.854 137.227 122.969 134.858C126.084 132.489 127.926 129.418 129.199 126.391C130.471 123.364 131.173 120.381 131.963 117.88C132.752 115.379 133.63 113.361 131.304 114.195Z" fill="#9D5E5B"/>
<path d="M82.9023 152.143C85.4853 151.441 87.3886 153.371 87.4339 157.057C87.4792 160.742 85.6666 166.182 84.1711 171.709C82.6757 177.237 81.4974 182.852 78.869 187.371C76.2406 191.89 72.1622 195.312 67.5399 198.909C62.9175 202.506 57.7515 206.279 54.9419 207.288C52.1323 208.297 51.6791 206.542 53.6278 200.313C55.5764 194.083 59.9267 183.379 63.688 175.833C67.4494 168.287 70.6215 163.9 73.839 160.04C77.0565 156.179 80.3192 152.845 82.9023 152.143Z" fill="#9D5E5B"/>
<path d="M50.5059 217.231C51.5625 218.554 53.6757 221.201 55.1726 224.818C56.6695 228.435 57.55 233.023 58.4305 237.787C59.311 242.551 60.1915 247.492 59.8393 251.197C59.4871 254.903 57.9022 257.373 55.6838 259.863C53.4654 262.353 50.6138 264.863 49.1983 266.072C47.7829 267.28 47.3488 267.535 46.599 263.258C45.969 259.665 44.9311 250.593 45.2019 242.062C45.4726 233.53 48.0404 224.553 48.7448 220.23C49.4492 215.907 49.4493 215.907 50.5059 217.231Z" fill="#9D5E5B"/>
<path d="M27.9017 290.598C3.33421 288.142 -21.2333 285.685 -45.8008 283.228L27.9017 290.598Z" fill="#9D5E5B"/>
<path d="M50.6267 277.262C51.5918 275.507 54.2241 275.682 56.2421 277.613C58.2602 279.543 59.664 283.228 60.7169 286.299C61.7698 289.37 62.4717 291.827 62.5594 294.283C62.6472 296.74 62.1208 299.197 61.682 301.04C61.2433 302.882 60.8924 304.11 59.1375 301.566C57.3827 299.021 54.2241 292.704 52.2937 287.703C50.3634 282.702 49.6615 279.017 50.6267 277.262Z" fill="#9D5E5B"/>
<path d="M321.255 155.602C321.627 157.836 321.999 160.069 322.372 162.303L321.255 155.602Z" fill="#9D5E5B"/>
</g>
<defs>
<clipPath id="clip0_78_138">
<rect width="360" height="360" fill="white"/>
</clipPath>
</defs>
</svg>
